# MagicaVoxel @ Ephtracy

# group
o 

# material
mtllib computer.mtl
usemtl palette

# normals
vn -1 0 0
vn 1 0 0
vn 0 0 1
vn 0 0 -1
vn 0 -1 0
vn 0 1 0

# texcoords
vt 0.0136719 0.5
vt 0.0332031 0.5
vt 0.0527344 0.5
vt 0.111328 0.5
vt 0.115234 0.5
vt 0.244141 0.5
vt 0.361328 0.5
vt 0.427734 0.5
vt 0.615234 0.5
vt 0.638672 0.5
vt 0.845703 0.5
vt 0.982422 0.5
vt 0.986328 0.5
vt 0.994141 0.5

# verts
v -6.3 2.6 -2.7
v -6.3 2.6 -6.3
v -6.3 4.8 -2.7
v -6.3 4.8 -3.5
v -6.3 12.6 -3.5
v -6.3 12.6 -6.3
v -6.1 4.3 -2.5
v -6.1 4.3 -2.7
v -6.1 4.6 -2.5
v -6.1 4.6 -2.7
v -6 4.2 -2.5
v -6 4.2 -2.7
v -6 4.3 -2.4
v -6 4.3 -2.5
v -6 4.3 -2.7
v -6 4.6 -2.4
v -6 4.6 -2.5
v -6 4.6 -2.7
v -6 4.7 -2.5
v -6 4.7 -2.7
v -4.2 4.3 -2.7
v -4.2 4.3 -2.8
v -4.2 4.4 -2.7
v -4.2 4.4 -2.8
v 4.6 3 -2.7
v 4.6 3 -2.8
v 4.6 3.8 -2.7
v 4.6 3.8 -2.8
v 4.6 3.9 -2.7
v 4.6 3.9 -2.8
v 4.6 4.7 -2.7
v 4.6 4.7 -2.8
v 4.9 3 -2.7
v 4.9 3 -2.8
v 4.9 3.8 -2.7
v 4.9 3.8 -2.8
v 4.9 3.9 -2.7
v 4.9 3.9 -2.8
v 4.9 4.7 -2.7
v 4.9 4.7 -2.8
v 5.2 3 -2.7
v 5.2 3 -2.8
v 5.2 3.8 -2.7
v 5.2 3.8 -2.8
v 5.2 3.9 -2.7
v 5.2 3.9 -2.8
v 5.2 4.7 -2.7
v 5.2 4.7 -2.8
v 5.5 3 -2.7
v 5.5 3 -2.8
v 5.5 3.8 -2.7
v 5.5 3.8 -2.8
v 5.5 3.9 -2.7
v 5.5 3.9 -2.8
v 5.5 4.7 -2.7
v 5.5 4.7 -2.8
v 5.7 5.2 -3.5
v 5.7 5.2 -3.7
v 5.7 5.3 -3.5
v 5.7 5.3 -3.7
v 5.7 12.1 -3.5
v 5.7 12.1 -3.6
v 5.7 12.1 -3.7
v 5.7 12.2 -3.5
v 5.7 12.2 -3.6
v 5.7 12.2 -3.7
v 5.8 3 -2.7
v 5.8 3 -2.8
v 5.8 3.8 -2.7
v 5.8 3.8 -2.8
v 5.8 3.9 -2.7
v 5.8 3.9 -2.8
v 5.8 4.7 -2.7
v 5.8 4.7 -2.8
v 5.8 5.3 -3.5
v 5.8 5.3 -3.7
v 5.8 5.4 -3.5
v 5.8 5.4 -3.7
v 5.8 12 -3.5
v 5.8 12 -3.7
v 5.8 12.1 -3.5
v 5.8 12.1 -3.6
v 5.8 12.1 -3.7
v 5.9 5.4 -3.5
v 5.9 5.4 -3.7
v 5.9 12 -3.5
v 5.9 12 -3.7
v 6.1 3 -2.7
v 6.1 3 -2.8
v 6.1 3.8 -2.7
v 6.1 3.8 -2.8
v 6.1 3.9 -2.7
v 6.1 3.9 -2.8
v 6.1 4.7 -2.7
v 6.1 4.7 -2.8
v -5.9 5.4 -3.5
v -5.9 5.4 -3.7
v -5.9 12 -3.5
v -5.9 12 -3.7
v -5.8 5.3 -3.5
v -5.8 5.3 -3.7
v -5.8 5.4 -3.5
v -5.8 5.4 -3.7
v -5.8 12 -3.5
v -5.8 12 -3.7
v -5.8 12.1 -3.5
v -5.8 12.1 -3.6
v -5.8 12.1 -3.7
v -5.7 4.2 -2.5
v -5.7 4.2 -2.7
v -5.7 4.3 -2.4
v -5.7 4.3 -2.5
v -5.7 4.3 -2.7
v -5.7 4.5 -2.4
v -5.7 4.5 -2.5
v -5.7 4.6 -2.4
v -5.7 4.6 -2.5
v -5.7 4.6 -2.7
v -5.7 4.7 -2.5
v -5.7 4.7 -2.7
v -5.7 5.2 -3.5
v -5.7 5.2 -3.7
v -5.7 5.3 -3.5
v -5.7 5.3 -3.7
v -5.7 12.1 -3.5
v -5.7 12.1 -3.6
v -5.7 12.1 -3.7
v -5.7 12.2 -3.5
v -5.7 12.2 -3.6
v -5.7 12.2 -3.7
v -5.6 4.3 -2.5
v -5.6 4.3 -2.7
v -5.6 4.6 -2.5
v -5.6 4.6 -2.7
v -5.3 4.3 -2.7
v -5.3 4.3 -2.8
v -5.3 4.4 -2.7
v -5.3 4.4 -2.8
v 4.4 3 -2.7
v 4.4 3 -2.8
v 4.4 3.8 -2.7
v 4.4 3.8 -2.8
v 4.4 3.9 -2.7
v 4.4 3.9 -2.8
v 4.4 4.7 -2.7
v 4.4 4.7 -2.8
v 4.7 3 -2.7
v 4.7 3 -2.8
v 4.7 3.8 -2.7
v 4.7 3.8 -2.8
v 4.7 3.9 -2.7
v 4.7 3.9 -2.8
v 4.7 4.7 -2.7
v 4.7 4.7 -2.8
v 5 3 -2.7
v 5 3 -2.8
v 5 3.8 -2.7
v 5 3.8 -2.8
v 5 3.9 -2.7
v 5 3.9 -2.8
v 5 4.7 -2.7
v 5 4.7 -2.8
v 5.3 3 -2.7
v 5.3 3 -2.8
v 5.3 3.8 -2.7
v 5.3 3.8 -2.8
v 5.3 3.9 -2.7
v 5.3 3.9 -2.8
v 5.3 4.7 -2.7
v 5.3 4.7 -2.8
v 5.6 3 -2.7
v 5.6 3 -2.8
v 5.6 3.8 -2.7
v 5.6 3.8 -2.8
v 5.6 3.9 -2.7
v 5.6 3.9 -2.8
v 5.6 4.7 -2.7
v 5.6 4.7 -2.8
v 5.9 3 -2.7
v 5.9 3 -2.8
v 5.9 3.8 -2.7
v 5.9 3.8 -2.8
v 5.9 3.9 -2.7
v 5.9 3.9 -2.8
v 5.9 4.7 -2.7
v 5.9 4.7 -2.8
v 6.3 2.6 -2.7
v 6.3 2.6 -6.3
v 6.3 4.8 -2.7
v 6.3 4.8 -3.5
v 6.3 12.6 -3.5
v 6.3 12.6 -6.3
v -6 4.3 -2.4
v -6 4.6 -2.4
v -5.8 4.5 -2.4
v -5.8 4.6 -2.4
v -5.7 4.3 -2.4
v -5.7 4.5 -2.4
v -5.7 4.6 -2.4
v -6.1 4.3 -2.5
v -6.1 4.6 -2.5
v -6 4.2 -2.5
v -6 4.3 -2.5
v -6 4.6 -2.5
v -6 4.7 -2.5
v -5.8 4.6 -2.5
v -5.7 4.2 -2.5
v -5.7 4.3 -2.5
v -5.7 4.5 -2.5
v -5.7 4.6 -2.5
v -5.7 4.7 -2.5
v -5.6 4.3 -2.5
v -5.6 4.6 -2.5
v -6.3 2.6 -2.7
v -6.3 4.8 -2.7
v -6.1 4.3 -2.7
v -6.1 4.6 -2.7
v -6 4.2 -2.7
v -6 4.3 -2.7
v -6 4.6 -2.7
v -6 4.7 -2.7
v -5.7 4.2 -2.7
v -5.7 4.3 -2.7
v -5.7 4.6 -2.7
v -5.7 4.7 -2.7
v -5.6 4.3 -2.7
v -5.6 4.6 -2.7
v -5.3 4.2 -2.7
v -5.3 4.3 -2.7
v -5.3 4.4 -2.7
v -5.3 4.5 -2.7
v -4.2 4.2 -2.7
v -4.2 4.3 -2.7
v -4.2 4.4 -2.7
v -4.2 4.5 -2.7
v 4.4 3 -2.7
v 4.4 3.8 -2.7
v 4.4 3.9 -2.7
v 4.4 4.7 -2.7
v 4.6 3 -2.7
v 4.6 3.8 -2.7
v 4.6 3.9 -2.7
v 4.6 4.7 -2.7
v 4.7 3 -2.7
v 4.7 3.8 -2.7
v 4.7 3.9 -2.7
v 4.7 4.7 -2.7
v 4.9 3 -2.7
v 4.9 3.8 -2.7
v 4.9 3.9 -2.7
v 4.9 4.7 -2.7
v 5 3 -2.7
v 5 3.8 -2.7
v 5 3.9 -2.7
v 5 4.7 -2.7
v 5.2 3 -2.7
v 5.2 3.8 -2.7
v 5.2 3.9 -2.7
v 5.2 4.7 -2.7
v 5.3 3 -2.7
v 5.3 3.8 -2.7
v 5.3 3.9 -2.7
v 5.3 4.7 -2.7
v 5.5 3 -2.7
v 5.5 3.8 -2.7
v 5.5 3.9 -2.7
v 5.5 4.7 -2.7
v 5.6 3 -2.7
v 5.6 3.8 -2.7
v 5.6 3.9 -2.7
v 5.6 4.7 -2.7
v 5.8 3 -2.7
v 5.8 3.8 -2.7
v 5.8 3.9 -2.7
v 5.8 4.7 -2.7
v 5.9 3 -2.7
v 5.9 3.8 -2.7
v 5.9 3.9 -2.7
v 5.9 4.7 -2.7
v 6.1 3 -2.7
v 6.1 3.8 -2.7
v 6.1 3.9 -2.7
v 6.1 4.7 -2.7
v 6.3 2.6 -2.7
v 6.3 4.8 -2.7
v -5.3 4.3 -2.8
v -5.3 4.4 -2.8
v -4.2 4.3 -2.8
v -4.2 4.4 -2.8
v 4.4 3 -2.8
v 4.4 3.8 -2.8
v 4.4 3.9 -2.8
v 4.4 4.7 -2.8
v 4.6 3 -2.8
v 4.6 3.8 -2.8
v 4.6 3.9 -2.8
v 4.6 4.7 -2.8
v 4.7 3 -2.8
v 4.7 3.8 -2.8
v 4.7 3.9 -2.8
v 4.7 4.7 -2.8
v 4.9 3 -2.8
v 4.9 3.8 -2.8
v 4.9 3.9 -2.8
v 4.9 4.7 -2.8
v 5 3 -2.8
v 5 3.8 -2.8
v 5 3.9 -2.8
v 5 4.7 -2.8
v 5.2 3 -2.8
v 5.2 3.8 -2.8
v 5.2 3.9 -2.8
v 5.2 4.7 -2.8
v 5.3 3 -2.8
v 5.3 3.8 -2.8
v 5.3 3.9 -2.8
v 5.3 4.7 -2.8
v 5.5 3 -2.8
v 5.5 3.8 -2.8
v 5.5 3.9 -2.8
v 5.5 4.7 -2.8
v 5.6 3 -2.8
v 5.6 3.8 -2.8
v 5.6 3.9 -2.8
v 5.6 4.7 -2.8
v 5.8 3 -2.8
v 5.8 3.8 -2.8
v 5.8 3.9 -2.8
v 5.8 4.7 -2.8
v 5.9 3 -2.8
v 5.9 3.8 -2.8
v 5.9 3.9 -2.8
v 5.9 4.7 -2.8
v 6.1 3 -2.8
v 6.1 3.8 -2.8
v 6.1 3.9 -2.8
v 6.1 4.7 -2.8
v -6.3 4.8 -3.5
v -6.3 12.6 -3.5
v -5.9 5.4 -3.5
v -5.9 12 -3.5
v -5.8 5.3 -3.5
v -5.8 5.4 -3.5
v -5.8 12 -3.5
v -5.8 12.1 -3.5
v -5.7 5.2 -3.5
v -5.7 5.3 -3.5
v -5.7 12.1 -3.5
v -5.7 12.2 -3.5
v -1.6 5 -3.5
v -1.6 5.1 -3.5
v -1.5 5 -3.5
v -1.5 5.1 -3.5
v -1.2 5 -3.5
v -1.2 5.1 -3.5
v -1.1 5 -3.5
v -1.1 5.1 -3.5
v -0.8 5 -3.5
v -0.8 5.1 -3.5
v -0.7 5 -3.5
v -0.7 5.1 -3.5
v -0.4 5 -3.5
v -0.4 5.1 -3.5
v -0.3 5 -3.5
v -0.3 5.1 -3.5
v 0 5 -3.5
v 0 5.1 -3.5
v 0.0999999 5 -3.5
v 0.0999999 5.1 -3.5
v 0.4 5 -3.5
v 0.4 5.1 -3.5
v 0.5 5 -3.5
v 0.5 5.1 -3.5
v 0.8 5 -3.5
v 0.8 5.1 -3.5
v 0.9 5 -3.5
v 0.9 5.1 -3.5
v 1.2 5 -3.5
v 1.2 5.1 -3.5
v 1.3 5 -3.5
v 1.3 5.1 -3.5
v 5.7 5.2 -3.5
v 5.7 5.3 -3.5
v 5.7 12.1 -3.5
v 5.7 12.2 -3.5
v 5.8 5.3 -3.5
v 5.8 5.4 -3.5
v 5.8 12 -3.5
v 5.8 12.1 -3.5
v 5.9 5.4 -3.5
v 5.9 12 -3.5
v 6.3 4.8 -3.5
v 6.3 12.6 -3.5
v -5.9 5.4 -3.7
v -5.9 12 -3.7
v -5.8 5.3 -3.7
v -5.8 5.4 -3.7
v -5.8 12 -3.7
v -5.8 12.1 -3.7
v -5.7 5.2 -3.7
v -5.7 5.3 -3.7
v -5.7 12.1 -3.7
v -5.7 12.2 -3.7
v 5.7 5.2 -3.7
v 5.7 5.3 -3.7
v 5.7 12.1 -3.7
v 5.7 12.2 -3.7
v 5.8 5.3 -3.7
v 5.8 5.4 -3.7
v 5.8 12 -3.7
v 5.8 12.1 -3.7
v 5.9 5.4 -3.7
v 5.9 12 -3.7
v -6.3 2.6 -6.3
v -6.3 12.6 -6.3
v 6.3 2.6 -6.3
v 6.3 12.6 -6.3
v -6.3 2.6 -2.7
v 6.3 2.6 -2.7
v -6.3 2.6 -6.3
v 6.3 2.6 -6.3
v 4.4 3.8 -2.7
v 4.6 3.8 -2.7
v 4.7 3.8 -2.7
v 4.9 3.8 -2.7
v 5 3.8 -2.7
v 5.2 3.8 -2.7
v 5.3 3.8 -2.7
v 5.5 3.8 -2.7
v 5.6 3.8 -2.7
v 5.8 3.8 -2.7
v 5.9 3.8 -2.7
v 6.1 3.8 -2.7
v 4.4 3.8 -2.8
v 4.6 3.8 -2.8
v 4.7 3.8 -2.8
v 4.9 3.8 -2.8
v 5 3.8 -2.8
v 5.2 3.8 -2.8
v 5.3 3.8 -2.8
v 5.5 3.8 -2.8
v 5.6 3.8 -2.8
v 5.8 3.8 -2.8
v 5.9 3.8 -2.8
v 6.1 3.8 -2.8
v -6 4.2 -2.5
v -5.7 4.2 -2.5
v -6 4.2 -2.7
v -5.7 4.2 -2.7
v -6 4.3 -2.4
v -5.7 4.3 -2.4
v -6.1 4.3 -2.5
v -6 4.3 -2.5
v -5.7 4.3 -2.5
v -5.6 4.3 -2.5
v -6.1 4.3 -2.7
v -6 4.3 -2.7
v -5.7 4.3 -2.7
v -5.6 4.3 -2.7
v -5.3 4.4 -2.7
v -4.2 4.4 -2.7
v -5.3 4.4 -2.8
v -4.2 4.4 -2.8
v 4.4 4.7 -2.7
v 4.6 4.7 -2.7
v 4.7 4.7 -2.7
v 4.9 4.7 -2.7
v 5 4.7 -2.7
v 5.2 4.7 -2.7
v 5.3 4.7 -2.7
v 5.5 4.7 -2.7
v 5.6 4.7 -2.7
v 5.8 4.7 -2.7
v 5.9 4.7 -2.7
v 6.1 4.7 -2.7
v 4.4 4.7 -2.8
v 4.6 4.7 -2.8
v 4.7 4.7 -2.8
v 4.9 4.7 -2.8
v 5 4.7 -2.8
v 5.2 4.7 -2.8
v 5.3 4.7 -2.8
v 5.5 4.7 -2.8
v 5.6 4.7 -2.8
v 5.8 4.7 -2.8
v 5.9 4.7 -2.8
v 6.1 4.7 -2.8
v -5.9 12 -3.5
v -5.8 12 -3.5
v 5.8 12 -3.5
v 5.9 12 -3.5
v -5.9 12 -3.7
v -5.8 12 -3.7
v 5.8 12 -3.7
v 5.9 12 -3.7
v -5.8 12.1 -3.5
v -5.7 12.1 -3.5
v 5.7 12.1 -3.5
v 5.8 12.1 -3.5
v -5.8 12.1 -3.6
v -5.7 12.1 -3.6
v 5.7 12.1 -3.6
v 5.8 12.1 -3.6
v -5.8 12.1 -3.7
v -5.7 12.1 -3.7
v 5.7 12.1 -3.7
v 5.8 12.1 -3.7
v -5.7 12.2 -3.5
v 5.7 12.2 -3.5
v -5.7 12.2 -3.6
v 5.7 12.2 -3.6
v -5.7 12.2 -3.7
v 5.7 12.2 -3.7
v 4.4 3 -2.7
v 4.6 3 -2.7
v 4.7 3 -2.7
v 4.9 3 -2.7
v 5 3 -2.7
v 5.2 3 -2.7
v 5.3 3 -2.7
v 5.5 3 -2.7
v 5.6 3 -2.7
v 5.8 3 -2.7
v 5.9 3 -2.7
v 6.1 3 -2.7
v 4.4 3 -2.8
v 4.6 3 -2.8
v 4.7 3 -2.8
v 4.9 3 -2.8
v 5 3 -2.8
v 5.2 3 -2.8
v 5.3 3 -2.8
v 5.5 3 -2.8
v 5.6 3 -2.8
v 5.8 3 -2.8
v 5.9 3 -2.8
v 6.1 3 -2.8
v 4.4 3.9 -2.7
v 4.6 3.9 -2.7
v 4.7 3.9 -2.7
v 4.9 3.9 -2.7
v 5 3.9 -2.7
v 5.2 3.9 -2.7
v 5.3 3.9 -2.7
v 5.5 3.9 -2.7
v 5.6 3.9 -2.7
v 5.8 3.9 -2.7
v 5.9 3.9 -2.7
v 6.1 3.9 -2.7
v 4.4 3.9 -2.8
v 4.6 3.9 -2.8
v 4.7 3.9 -2.8
v 4.9 3.9 -2.8
v 5 3.9 -2.8
v 5.2 3.9 -2.8
v 5.3 3.9 -2.8
v 5.5 3.9 -2.8
v 5.6 3.9 -2.8
v 5.8 3.9 -2.8
v 5.9 3.9 -2.8
v 6.1 3.9 -2.8
v -5.3 4.3 -2.7
v -4.2 4.3 -2.7
v -5.3 4.3 -2.8
v -4.2 4.3 -2.8
v -6 4.6 -2.4
v -5.8 4.6 -2.4
v -5.7 4.6 -2.4
v -6.1 4.6 -2.5
v -6 4.6 -2.5
v -5.8 4.6 -2.5
v -5.7 4.6 -2.5
v -5.6 4.6 -2.5
v -6.1 4.6 -2.7
v -6 4.6 -2.7
v -5.7 4.6 -2.7
v -5.6 4.6 -2.7
v -6 4.7 -2.5
v -5.7 4.7 -2.5
v -6 4.7 -2.7
v -5.7 4.7 -2.7
v -6.3 4.8 -2.7
v 6.3 4.8 -2.7
v -6.3 4.8 -3.5
v 6.3 4.8 -3.5
v -5.7 5.2 -3.5
v 5.7 5.2 -3.5
v -5.7 5.2 -3.7
v 5.7 5.2 -3.7
v -5.8 5.3 -3.5
v -5.7 5.3 -3.5
v 5.7 5.3 -3.5
v 5.8 5.3 -3.5
v -5.8 5.3 -3.7
v -5.7 5.3 -3.7
v 5.7 5.3 -3.7
v 5.8 5.3 -3.7
v -5.9 5.4 -3.5
v -5.8 5.4 -3.5
v 5.8 5.4 -3.5
v 5.9 5.4 -3.5
v -5.9 5.4 -3.7
v -5.8 5.4 -3.7
v 5.8 5.4 -3.7
v 5.9 5.4 -3.7
v -6.3 12.6 -3.5
v 6.3 12.6 -3.5
v -6.3 12.6 -6.3
v 6.3 12.6 -6.3

# faces
f 3/2/1 2/2/1 1/2/1
f 4/2/1 2/2/1 3/2/1
f 5/2/1 2/2/1 4/2/1
f 6/2/1 2/2/1 5/2/1
f 9/11/1 8/11/1 7/11/1
f 10/11/1 8/11/1 9/11/1
f 14/11/1 12/11/1 11/11/1
f 15/11/1 12/11/1 14/11/1
f 16/11/1 14/11/1 13/11/1
f 17/11/1 14/11/1 16/11/1
f 19/11/1 18/11/1 17/11/1
f 20/11/1 18/11/1 19/11/1
f 23/2/1 22/2/1 21/2/1
f 24/2/1 22/2/1 23/2/1
f 27/2/1 26/2/1 25/2/1
f 28/2/1 26/2/1 27/2/1
f 31/2/1 30/2/1 29/2/1
f 32/2/1 30/2/1 31/2/1
f 35/2/1 34/2/1 33/2/1
f 36/2/1 34/2/1 35/2/1
f 39/2/1 38/2/1 37/2/1
f 40/2/1 38/2/1 39/2/1
f 43/2/1 42/2/1 41/2/1
f 44/2/1 42/2/1 43/2/1
f 47/2/1 46/2/1 45/2/1
f 48/2/1 46/2/1 47/2/1
f 51/2/1 50/2/1 49/2/1
f 52/2/1 50/2/1 51/2/1
f 55/2/1 54/2/1 53/2/1
f 56/2/1 54/2/1 55/2/1
f 59/2/1 58/2/1 57/2/1
f 60/2/1 58/2/1 59/2/1
f 64/2/1 62/2/1 61/2/1
f 65/14/1 63/14/1 62/14/1
f 65/2/1 62/2/1 64/2/1
f 66/14/1 63/14/1 65/14/1
f 69/2/1 68/2/1 67/2/1
f 70/2/1 68/2/1 69/2/1
f 73/2/1 72/2/1 71/2/1
f 74/2/1 72/2/1 73/2/1
f 77/2/1 76/2/1 75/2/1
f 78/2/1 76/2/1 77/2/1
f 81/2/1 80/2/1 79/2/1
f 82/2/1 80/2/1 81/2/1
f 83/2/1 80/2/1 82/2/1
f 86/2/1 85/2/1 84/2/1
f 87/2/1 85/2/1 86/2/1
f 90/2/1 89/2/1 88/2/1
f 91/2/1 89/2/1 90/2/1
f 94/2/1 93/2/1 92/2/1
f 95/2/1 93/2/1 94/2/1
f 96/2/2 97/2/2 98/2/2
f 98/2/2 97/2/2 99/2/2
f 100/2/2 101/2/2 102/2/2
f 102/2/2 101/2/2 103/2/2
f 104/2/2 105/2/2 106/2/2
f 106/2/2 105/2/2 107/2/2
f 107/2/2 105/2/2 108/2/2
f 109/11/2 110/11/2 112/11/2
f 112/11/2 110/11/2 113/11/2
f 111/11/2 112/11/2 114/11/2
f 114/11/2 112/11/2 115/11/2
f 114/4/2 115/4/2 116/4/2
f 116/4/2 115/4/2 117/4/2
f 117/11/2 118/11/2 119/11/2
f 119/11/2 118/11/2 120/11/2
f 121/2/2 122/2/2 123/2/2
f 123/2/2 122/2/2 124/2/2
f 125/2/2 126/2/2 128/2/2
f 126/14/2 127/14/2 129/14/2
f 128/2/2 126/2/2 129/2/2
f 129/14/2 127/14/2 130/14/2
f 131/11/2 132/11/2 133/11/2
f 133/11/2 132/11/2 134/11/2
f 135/2/2 136/2/2 137/2/2
f 137/2/2 136/2/2 138/2/2
f 139/2/2 140/2/2 141/2/2
f 141/2/2 140/2/2 142/2/2
f 143/2/2 144/2/2 145/2/2
f 145/2/2 144/2/2 146/2/2
f 147/2/2 148/2/2 149/2/2
f 149/2/2 148/2/2 150/2/2
f 151/2/2 152/2/2 153/2/2
f 153/2/2 152/2/2 154/2/2
f 155/2/2 156/2/2 157/2/2
f 157/2/2 156/2/2 158/2/2
f 159/2/2 160/2/2 161/2/2
f 161/2/2 160/2/2 162/2/2
f 163/2/2 164/2/2 165/2/2
f 165/2/2 164/2/2 166/2/2
f 167/2/2 168/2/2 169/2/2
f 169/2/2 168/2/2 170/2/2
f 171/2/2 172/2/2 173/2/2
f 173/2/2 172/2/2 174/2/2
f 175/2/2 176/2/2 177/2/2
f 177/2/2 176/2/2 178/2/2
f 179/2/2 180/2/2 181/2/2
f 181/2/2 180/2/2 182/2/2
f 183/2/2 184/2/2 185/2/2
f 185/2/2 184/2/2 186/2/2
f 187/2/2 188/2/2 189/2/2
f 189/2/2 188/2/2 190/2/2
f 190/2/2 188/2/2 191/2/2
f 191/2/2 188/2/2 192/2/2
f 195/11/3 194/11/3 193/11/3
f 196/11/3 194/11/3 195/11/3
f 197/11/3 195/11/3 193/11/3
f 198/4/3 196/4/3 195/4/3
f 198/11/3 195/11/3 197/11/3
f 199/4/3 196/4/3 198/4/3
f 203/11/3 201/11/3 200/11/3
f 204/11/3 201/11/3 203/11/3
f 206/11/3 205/11/3 204/11/3
f 207/11/3 203/11/3 202/11/3
f 208/11/3 203/11/3 207/11/3
f 210/11/3 205/11/3 206/11/3
f 211/11/3 205/11/3 210/11/3
f 212/11/3 209/11/3 208/11/3
f 212/11/3 210/11/3 209/11/3
f 213/11/3 210/11/3 212/11/3
f 216/2/3 215/2/3 214/2/3
f 217/2/3 215/2/3 216/2/3
f 218/2/3 216/2/3 214/2/3
f 219/2/3 216/2/3 218/2/3
f 220/2/3 215/2/3 217/2/3
f 221/2/3 215/2/3 220/2/3
f 222/2/3 218/2/3 214/2/3
f 225/2/3 215/2/3 221/2/3
f 226/2/3 223/2/3 222/2/3
f 227/2/3 225/2/3 224/2/3
f 228/2/3 226/2/3 222/2/3
f 228/2/3 227/2/3 226/2/3
f 228/2/3 222/2/3 214/2/3
f 229/2/3 227/2/3 228/2/3
f 230/2/3 227/2/3 229/2/3
f 231/2/3 227/2/3 230/2/3
f 232/2/3 228/2/3 214/2/3
f 232/12/3 229/12/3 228/12/3
f 233/12/3 229/12/3 232/12/3
f 234/12/3 231/12/3 230/12/3
f 235/2/3 227/2/3 231/2/3
f 235/12/3 231/12/3 234/12/3
f 236/2/3 234/2/3 233/2/3
f 236/2/3 233/2/3 232/2/3
f 236/2/3 235/2/3 234/2/3
f 236/2/3 232/2/3 214/2/3
f 237/2/3 235/2/3 236/2/3
f 238/2/3 235/2/3 237/2/3
f 239/2/3 225/2/3 227/2/3
f 239/2/3 235/2/3 238/2/3
f 239/2/3 215/2/3 225/2/3
f 239/2/3 227/2/3 235/2/3
f 240/2/3 236/2/3 214/2/3
f 241/2/3 238/2/3 237/2/3
f 242/2/3 238/2/3 241/2/3
f 243/2/3 215/2/3 239/2/3
f 244/2/3 240/2/3 214/2/3
f 244/2/3 243/2/3 242/2/3
f 244/2/3 242/2/3 241/2/3
f 244/2/3 241/2/3 240/2/3
f 245/2/3 243/2/3 244/2/3
f 246/2/3 243/2/3 245/2/3
f 247/2/3 215/2/3 243/2/3
f 247/2/3 243/2/3 246/2/3
f 248/2/3 244/2/3 214/2/3
f 249/2/3 246/2/3 245/2/3
f 250/2/3 246/2/3 249/2/3
f 251/2/3 215/2/3 247/2/3
f 252/2/3 248/2/3 214/2/3
f 252/2/3 251/2/3 250/2/3
f 252/2/3 250/2/3 249/2/3
f 252/2/3 249/2/3 248/2/3
f 253/2/3 251/2/3 252/2/3
f 254/2/3 251/2/3 253/2/3
f 255/2/3 215/2/3 251/2/3
f 255/2/3 251/2/3 254/2/3
f 256/2/3 252/2/3 214/2/3
f 257/2/3 254/2/3 253/2/3
f 258/2/3 254/2/3 257/2/3
f 259/2/3 215/2/3 255/2/3
f 260/2/3 256/2/3 214/2/3
f 260/2/3 259/2/3 258/2/3
f 260/2/3 258/2/3 257/2/3
f 260/2/3 257/2/3 256/2/3
f 261/2/3 259/2/3 260/2/3
f 262/2/3 259/2/3 261/2/3
f 263/2/3 215/2/3 259/2/3
f 263/2/3 259/2/3 262/2/3
f 264/2/3 260/2/3 214/2/3
f 265/2/3 262/2/3 261/2/3
f 266/2/3 262/2/3 265/2/3
f 267/2/3 215/2/3 263/2/3
f 268/2/3 264/2/3 214/2/3
f 268/2/3 267/2/3 266/2/3
f 268/2/3 266/2/3 265/2/3
f 268/2/3 265/2/3 264/2/3
f 269/2/3 267/2/3 268/2/3
f 270/2/3 267/2/3 269/2/3
f 271/2/3 215/2/3 267/2/3
f 271/2/3 267/2/3 270/2/3
f 272/2/3 268/2/3 214/2/3
f 273/2/3 270/2/3 269/2/3
f 274/2/3 270/2/3 273/2/3
f 275/2/3 215/2/3 271/2/3
f 276/2/3 272/2/3 214/2/3
f 276/2/3 275/2/3 274/2/3
f 276/2/3 274/2/3 273/2/3
f 276/2/3 273/2/3 272/2/3
f 277/2/3 275/2/3 276/2/3
f 278/2/3 275/2/3 277/2/3
f 279/2/3 215/2/3 275/2/3
f 279/2/3 275/2/3 278/2/3
f 280/2/3 276/2/3 214/2/3
f 281/2/3 278/2/3 277/2/3
f 282/2/3 278/2/3 281/2/3
f 283/2/3 215/2/3 279/2/3
f 284/2/3 280/2/3 214/2/3
f 284/2/3 283/2/3 282/2/3
f 284/2/3 282/2/3 281/2/3
f 284/2/3 281/2/3 280/2/3
f 285/2/3 215/2/3 283/2/3
f 285/2/3 283/2/3 284/2/3
f 288/12/3 287/12/3 286/12/3
f 289/12/3 287/12/3 288/12/3
f 294/13/3 291/13/3 290/13/3
f 295/13/3 291/13/3 294/13/3
f 296/13/3 293/13/3 292/13/3
f 297/13/3 293/13/3 296/13/3
f 302/13/3 299/13/3 298/13/3
f 303/13/3 299/13/3 302/13/3
f 304/13/3 301/13/3 300/13/3
f 305/13/3 301/13/3 304/13/3
f 310/13/3 307/13/3 306/13/3
f 311/13/3 307/13/3 310/13/3
f 312/13/3 309/13/3 308/13/3
f 313/13/3 309/13/3 312/13/3
f 318/13/3 315/13/3 314/13/3
f 319/13/3 315/13/3 318/13/3
f 320/13/3 317/13/3 316/13/3
f 321/13/3 317/13/3 320/13/3
f 326/13/3 323/13/3 322/13/3
f 327/13/3 323/13/3 326/13/3
f 328/13/3 325/13/3 324/13/3
f 329/13/3 325/13/3 328/13/3
f 334/13/3 331/13/3 330/13/3
f 335/13/3 331/13/3 334/13/3
f 336/13/3 333/13/3 332/13/3
f 337/13/3 333/13/3 336/13/3
f 340/2/3 339/2/3 338/2/3
f 341/2/3 339/2/3 340/2/3
f 342/2/3 340/2/3 338/2/3
f 343/2/3 340/2/3 342/2/3
f 344/2/3 339/2/3 341/2/3
f 345/2/3 339/2/3 344/2/3
f 346/2/3 342/2/3 338/2/3
f 347/2/3 342/2/3 346/2/3
f 348/2/3 339/2/3 345/2/3
f 349/2/3 339/2/3 348/2/3
f 350/2/3 346/2/3 338/2/3
f 351/2/3 346/2/3 350/2/3
f 352/2/3 350/2/3 338/2/3
f 352/10/3 351/10/3 350/10/3
f 353/2/3 346/2/3 351/2/3
f 353/10/3 351/10/3 352/10/3
f 354/2/3 352/2/3 338/2/3
f 354/2/3 353/2/3 352/2/3
f 355/2/3 346/2/3 353/2/3
f 355/2/3 353/2/3 354/2/3
f 356/2/3 354/2/3 338/2/3
f 356/9/3 355/9/3 354/9/3
f 357/2/3 346/2/3 355/2/3
f 357/9/3 355/9/3 356/9/3
f 358/2/3 356/2/3 338/2/3
f 358/2/3 357/2/3 356/2/3
f 359/2/3 346/2/3 357/2/3
f 359/2/3 357/2/3 358/2/3
f 360/2/3 358/2/3 338/2/3
f 360/8/3 359/8/3 358/8/3
f 361/2/3 346/2/3 359/2/3
f 361/8/3 359/8/3 360/8/3
f 362/2/3 360/2/3 338/2/3
f 362/2/3 361/2/3 360/2/3
f 363/2/3 346/2/3 361/2/3
f 363/2/3 361/2/3 362/2/3
f 364/2/3 362/2/3 338/2/3
f 364/7/3 363/7/3 362/7/3
f 365/2/3 346/2/3 363/2/3
f 365/7/3 363/7/3 364/7/3
f 366/2/3 364/2/3 338/2/3
f 366/2/3 365/2/3 364/2/3
f 367/2/3 346/2/3 365/2/3
f 367/2/3 365/2/3 366/2/3
f 368/2/3 366/2/3 338/2/3
f 368/6/3 367/6/3 366/6/3
f 369/2/3 346/2/3 367/2/3
f 369/6/3 367/6/3 368/6/3
f 370/2/3 368/2/3 338/2/3
f 370/2/3 369/2/3 368/2/3
f 371/2/3 346/2/3 369/2/3
f 371/2/3 369/2/3 370/2/3
f 372/2/3 370/2/3 338/2/3
f 372/5/3 371/5/3 370/5/3
f 373/2/3 346/2/3 371/2/3
f 373/5/3 371/5/3 372/5/3
f 374/2/3 372/2/3 338/2/3
f 374/2/3 373/2/3 372/2/3
f 375/2/3 346/2/3 373/2/3
f 375/2/3 373/2/3 374/2/3
f 376/2/3 374/2/3 338/2/3
f 376/3/3 375/3/3 374/3/3
f 377/2/3 346/2/3 375/2/3
f 377/3/3 375/3/3 376/3/3
f 378/2/3 376/2/3 338/2/3
f 378/2/3 377/2/3 376/2/3
f 379/2/3 346/2/3 377/2/3
f 379/2/3 377/2/3 378/2/3
f 380/2/3 378/2/3 338/2/3
f 380/1/3 379/1/3 378/1/3
f 381/2/3 346/2/3 379/2/3
f 381/1/3 379/1/3 380/1/3
f 382/2/3 381/2/3 380/2/3
f 382/2/3 346/2/3 381/2/3
f 385/2/3 339/2/3 349/2/3
f 386/2/3 383/2/3 382/2/3
f 389/2/3 385/2/3 384/2/3
f 390/2/3 387/2/3 386/2/3
f 391/2/3 389/2/3 388/2/3
f 392/2/3 390/2/3 386/2/3
f 392/2/3 391/2/3 390/2/3
f 392/2/3 380/2/3 338/2/3
f 392/2/3 382/2/3 380/2/3
f 392/2/3 386/2/3 382/2/3
f 393/2/3 389/2/3 391/2/3
f 393/2/3 391/2/3 392/2/3
f 393/2/3 385/2/3 389/2/3
f 393/2/3 339/2/3 385/2/3
f 397/14/3 395/14/3 394/14/3
f 398/14/3 395/14/3 397/14/3
f 401/14/3 397/14/3 396/14/3
f 401/14/3 399/14/3 398/14/3
f 401/14/3 398/14/3 397/14/3
f 402/14/3 399/14/3 401/14/3
f 404/14/3 401/14/3 400/14/3
f 404/14/3 403/14/3 402/14/3
f 404/14/3 402/14/3 401/14/3
f 405/14/3 403/14/3 404/14/3
f 406/14/3 403/14/3 405/14/3
f 407/14/3 403/14/3 406/14/3
f 408/14/3 406/14/3 405/14/3
f 409/14/3 406/14/3 408/14/3
f 410/14/3 406/14/3 409/14/3
f 411/14/3 406/14/3 410/14/3
f 412/14/3 410/14/3 409/14/3
f 413/14/3 410/14/3 412/14/3
f 414/2/4 415/2/4 416/2/4
f 416/2/4 415/2/4 417/2/4
f 420/2/5 419/2/5 418/2/5
f 421/2/5 419/2/5 420/2/5
f 434/2/5 423/2/5 422/2/5
f 435/2/5 423/2/5 434/2/5
f 436/2/5 425/2/5 424/2/5
f 437/2/5 425/2/5 436/2/5
f 438/2/5 427/2/5 426/2/5
f 439/2/5 427/2/5 438/2/5
f 440/2/5 429/2/5 428/2/5
f 441/2/5 429/2/5 440/2/5
f 442/2/5 431/2/5 430/2/5
f 443/2/5 431/2/5 442/2/5
f 444/2/5 433/2/5 432/2/5
f 445/2/5 433/2/5 444/2/5
f 448/11/5 447/11/5 446/11/5
f 449/11/5 447/11/5 448/11/5
f 453/11/5 451/11/5 450/11/5
f 454/11/5 451/11/5 453/11/5
f 456/11/5 453/11/5 452/11/5
f 457/11/5 453/11/5 456/11/5
f 458/11/5 455/11/5 454/11/5
f 459/11/5 455/11/5 458/11/5
f 462/12/5 461/12/5 460/12/5
f 463/12/5 461/12/5 462/12/5
f 476/2/5 465/2/5 464/2/5
f 477/2/5 465/2/5 476/2/5
f 478/2/5 467/2/5 466/2/5
f 479/2/5 467/2/5 478/2/5
f 480/2/5 469/2/5 468/2/5
f 481/2/5 469/2/5 480/2/5
f 482/2/5 471/2/5 470/2/5
f 483/2/5 471/2/5 482/2/5
f 484/2/5 473/2/5 472/2/5
f 485/2/5 473/2/5 484/2/5
f 486/2/5 475/2/5 474/2/5
f 487/2/5 475/2/5 486/2/5
f 492/2/5 489/2/5 488/2/5
f 493/2/5 489/2/5 492/2/5
f 494/2/5 491/2/5 490/2/5
f 495/2/5 491/2/5 494/2/5
f 500/2/5 497/2/5 496/2/5
f 501/2/5 497/2/5 500/2/5
f 502/2/5 499/2/5 498/2/5
f 503/2/5 499/2/5 502/2/5
f 504/14/5 501/14/5 500/14/5
f 505/14/5 501/14/5 504/14/5
f 506/14/5 503/14/5 502/14/5
f 507/14/5 503/14/5 506/14/5
f 510/2/5 509/2/5 508/2/5
f 511/2/5 509/2/5 510/2/5
f 512/2/5 511/2/5 510/2/5
f 513/2/5 511/2/5 512/2/5
f 514/2/6 515/2/6 526/2/6
f 526/2/6 515/2/6 527/2/6
f 516/2/6 517/2/6 528/2/6
f 528/2/6 517/2/6 529/2/6
f 518/2/6 519/2/6 530/2/6
f 530/2/6 519/2/6 531/2/6
f 520/2/6 521/2/6 532/2/6
f 532/2/6 521/2/6 533/2/6
f 522/2/6 523/2/6 534/2/6
f 534/2/6 523/2/6 535/2/6
f 524/2/6 525/2/6 536/2/6
f 536/2/6 525/2/6 537/2/6
f 538/2/6 539/2/6 550/2/6
f 550/2/6 539/2/6 551/2/6
f 540/2/6 541/2/6 552/2/6
f 552/2/6 541/2/6 553/2/6
f 542/2/6 543/2/6 554/2/6
f 554/2/6 543/2/6 555/2/6
f 544/2/6 545/2/6 556/2/6
f 556/2/6 545/2/6 557/2/6
f 546/2/6 547/2/6 558/2/6
f 558/2/6 547/2/6 559/2/6
f 548/2/6 549/2/6 560/2/6
f 560/2/6 549/2/6 561/2/6
f 562/12/6 563/12/6 564/12/6
f 564/12/6 563/12/6 565/12/6
f 566/11/6 567/11/6 570/11/6
f 567/4/6 568/4/6 571/4/6
f 570/11/6 567/11/6 571/11/6
f 571/4/6 568/4/6 572/4/6
f 569/11/6 570/11/6 574/11/6
f 574/11/6 570/11/6 575/11/6
f 572/11/6 573/11/6 576/11/6
f 576/11/6 573/11/6 577/11/6
f 578/11/6 579/11/6 580/11/6
f 580/11/6 579/11/6 581/11/6
f 582/2/6 583/2/6 584/2/6
f 584/2/6 583/2/6 585/2/6
f 586/2/6 587/2/6 588/2/6
f 588/2/6 587/2/6 589/2/6
f 590/2/6 591/2/6 594/2/6
f 594/2/6 591/2/6 595/2/6
f 592/2/6 593/2/6 596/2/6
f 596/2/6 593/2/6 597/2/6
f 598/2/6 599/2/6 602/2/6
f 602/2/6 599/2/6 603/2/6
f 600/2/6 601/2/6 604/2/6
f 604/2/6 601/2/6 605/2/6
f 606/2/6 607/2/6 608/2/6
f 608/2/6 607/2/6 609/2/6
